<svg width="298" height="191" viewBox="0 0 298 191" fill="none" xmlns="http://www.w3.org/2000/svg">
<g clip-path="url(#clip0_1_1281)" filter="url(#filter0_d_1_1281)">
<path d="M91.2078 130.741C91.2078 122.803 81.2047 125.761 81.2047 119.724C81.2047 118.003 82.1387 116.856 83.6151 116.856C86.4171 116.856 85.7844 121.837 88.6166 121.837C89.9122 121.837 90.6655 120.961 90.6655 119.663C90.6655 117.732 88.3756 115.769 84.4888 115.437V113.656C84.4888 113.294 84.2779 113.053 83.9766 113.053H83.2234C82.9221 113.053 82.7112 113.294 82.7112 113.656V115.437C78.9148 115.709 76.3236 118.154 76.3236 121.444C76.3236 129.021 86.4473 127.119 86.4473 132.281C86.4473 134.213 85.3023 135.39 83.7657 135.39C80.9938 135.39 81.1143 130.289 77.9808 130.289C76.9564 130.289 76.0223 131.013 76.0223 132.492C76.0223 134.303 78.3423 136.628 82.5003 136.96V139.827C82.5003 140.22 82.681 140.461 82.9823 140.461H83.7657C84.067 140.461 84.2478 140.22 84.2478 139.827V136.96C88.5262 136.688 91.2078 134.122 91.2078 130.741Z" fill="#163A24"/>
<path d="M100.921 115.045C96.5221 115.045 93.2681 117.852 93.2681 121.927C93.2681 126.878 96.6426 128.991 100.228 128.991C102.156 128.991 103.633 128.387 104.567 127.3C104.416 131.949 103.392 135.269 100.981 135.269C98.1491 135.269 98.9326 130.138 95.799 130.138C94.5938 130.138 93.5995 130.923 93.5995 132.281C93.5995 134.726 96.5824 137.08 100.68 137.08C106.495 137.08 109.237 132.311 109.237 125.64C109.237 119.301 105.862 115.045 100.921 115.045ZM101.494 127.18C99.0531 127.18 97.6369 123.497 97.6369 120.418C97.6369 118.154 98.6915 116.856 100.288 116.856C102.849 116.856 104.175 120.207 104.507 123.98C104.446 125.882 103.362 127.18 101.494 127.18Z" fill="#163A24"/>
<path d="M120.431 122.833C118.684 122.833 117.117 123.437 116.032 124.523C116.304 119.422 117.84 116.856 119.889 116.856C122.631 116.856 121.787 121.988 125.101 121.988C126.276 121.988 127.271 121.354 127.271 119.844C127.271 117.581 124.77 115.045 120.19 115.045C114.375 115.045 111.392 120.327 111.392 126.485C111.392 132.824 114.978 137.08 119.708 137.08C123.956 137.08 127.391 134.303 127.391 130.168C127.391 125.127 124.017 122.833 120.431 122.833ZM120.251 135.269C117.84 135.269 116.394 132.039 116.062 127.844C116.153 126.093 117.358 124.614 119.166 124.614C121.606 124.614 122.992 128.357 122.992 131.617C122.992 133.911 121.908 135.269 120.251 135.269Z" fill="#163A24"/>
<path d="M137.377 115.045C132.978 115.045 129.724 117.852 129.724 121.927C129.724 126.878 133.099 128.991 136.684 128.991C138.613 128.991 140.089 128.387 141.023 127.3C140.872 131.949 139.848 135.269 137.438 135.269C134.605 135.269 135.389 130.138 132.255 130.138C131.05 130.138 130.056 130.923 130.056 132.281C130.056 134.726 133.039 137.08 137.136 137.08C142.951 137.08 145.693 132.311 145.693 125.64C145.693 119.301 142.319 115.045 137.377 115.045ZM137.95 127.18C135.509 127.18 134.093 123.497 134.093 120.418C134.093 118.154 135.148 116.856 136.745 116.856C139.306 116.856 140.631 120.207 140.963 123.98C140.903 125.882 139.818 127.18 137.95 127.18Z" fill="#163A24"/>
<path d="M164.12 137.08C169.032 137.08 172.406 134.062 172.406 128.659V118.244C172.406 116.977 173.702 116.705 173.702 115.95V115.83C173.702 115.528 173.431 115.347 173.009 115.347H169.574C169.182 115.347 168.881 115.528 168.881 115.83V115.95C168.881 116.705 170.086 116.977 170.086 118.244V128.598C170.086 133.488 167.374 135.118 165.115 135.118C161.77 135.118 159.752 132.854 159.752 128.598V118.244C159.752 116.977 161.047 116.705 161.047 115.95V115.83C161.047 115.528 160.776 115.347 160.354 115.347H154.69C154.268 115.347 153.997 115.528 153.997 115.83V115.95C153.997 116.705 155.172 116.977 155.172 118.244V128.598C155.172 134.062 158.848 137.08 164.12 137.08Z" fill="#163A24"/>
<path d="M184.45 137.08C188.819 137.08 192.585 134.846 192.585 130.922C192.585 122.229 180.412 126.394 180.412 119.904C180.412 118.184 181.527 116.795 183.817 116.795C188.216 116.795 187.101 122.168 190.355 122.168C191.651 122.168 192.283 121.444 192.283 120.297C192.314 117.791 188.969 115.075 183.907 115.075C178.936 115.075 175.923 117.731 175.923 121.353C175.953 130.288 188.126 125.881 188.126 132.311C188.126 134.152 186.74 135.359 184.63 135.359C179.539 135.359 180.352 129.866 177.339 129.805C176.104 129.805 175.531 130.59 175.531 131.647C175.531 134.061 178.725 137.08 184.45 137.08Z" fill="#163A24"/>
<path d="M195.568 136.778H203.854C210.724 136.778 215.454 132.552 215.454 126.093C215.454 119.905 210.422 115.347 202.438 115.347H195.568C195.147 115.347 194.875 115.528 194.875 115.83V115.95C194.875 116.705 196.051 116.977 196.051 118.244V133.881C196.051 135.148 194.875 135.42 194.875 136.175V136.265C194.875 136.597 195.147 136.778 195.568 136.778ZM202.77 134.937C201.384 134.937 200.54 134.001 200.54 132.341V118.456C200.54 117.49 201.082 117.188 201.745 117.188H202.318C207.108 117.188 210.724 122.078 210.724 128.025C210.724 132.462 207.982 134.937 204.306 134.937H202.77Z" fill="#163A24"/>
<path d="M53.2637 51.8814H51.5689V39.9015H47.3696V38.4111H57.4442V39.9015H53.2637V51.8814Z" fill="#163A24"/>
<path d="M61.5605 41.5996C62.7908 41.5996 63.701 41.8701 64.291 42.4108C64.8811 42.9516 65.1761 43.8133 65.1761 44.9955V51.8816H63.9709L63.6508 50.4478H63.5754C63.1361 51.0012 62.6715 51.4099 62.1819 51.674C61.7049 51.9382 61.0395 52.0702 60.1858 52.0702C59.2694 52.0702 58.5098 51.8313 57.9073 51.3533C57.3047 50.8628 57.0034 50.1018 57.0034 49.0705C57.0034 48.0643 57.3988 47.2908 58.1897 46.75C58.9806 46.1966 60.1984 45.8947 61.843 45.8445L63.5566 45.7879V45.1841C63.5566 44.3415 63.3746 43.7567 63.0105 43.4296C62.6465 43.1026 62.1317 42.9391 61.4663 42.9391C60.9391 42.9391 60.4369 43.0209 59.9598 43.1844C59.4829 43.3353 59.0371 43.5114 58.6228 43.7126L58.1144 42.4674C58.5538 42.2285 59.0748 42.0272 59.6774 41.8637C60.28 41.6876 60.9077 41.5996 61.5605 41.5996ZM62.0501 46.9953C60.7947 47.0456 59.9222 47.2469 59.4326 47.599C58.9556 47.9511 58.717 48.448 58.717 49.0894C58.717 49.6554 58.8865 50.0704 59.2254 50.3346C59.577 50.5987 60.0226 50.7307 60.5624 50.7307C61.4162 50.7307 62.1254 50.498 62.6904 50.0327C63.2553 49.5547 63.5378 48.8253 63.5378 47.8443V46.9387L62.0501 46.9953Z" fill="#163A24"/>
<path d="M69.9319 45.0333C69.9319 45.2345 69.9193 45.4986 69.8942 45.8256C69.8816 46.1527 69.8691 46.4357 69.8566 46.6746H69.9319C70.0072 46.5739 70.1202 46.4293 70.2709 46.2407C70.4215 46.052 70.5721 45.8634 70.7228 45.6747C70.886 45.4735 71.0241 45.3099 71.1371 45.1842L74.3572 41.7694H76.2968L72.2105 46.0897L76.5793 51.8816H74.5832L71.0806 47.1651L69.9319 48.165V51.8816H68.2936V37.5435H69.9319V45.0333Z" fill="#163A24"/>
<path d="M82.2508 41.5806C83.1171 41.5806 83.8577 41.7692 84.4729 42.1465C85.1005 42.5239 85.5776 43.0584 85.9041 43.7502C86.243 44.4293 86.4125 45.228 86.4125 46.1461V47.146H79.5015C79.5265 48.2905 79.8153 49.1647 80.3677 49.7684C80.9327 50.3596 81.7173 50.6551 82.7216 50.6551C83.3619 50.6551 83.9268 50.5985 84.4164 50.4853C84.9185 50.3596 85.4333 50.1835 85.9606 49.9571V51.4097C85.4458 51.6361 84.9374 51.7996 84.4352 51.9003C83.933 52.0135 83.3367 52.0701 82.6463 52.0701C81.6921 52.0701 80.8447 51.8751 80.1041 51.4852C79.3759 51.0953 78.8047 50.5167 78.3904 49.7495C77.9887 48.9697 77.7878 48.0202 77.7878 46.9008C77.7878 45.794 77.9698 44.8444 78.3339 44.052C78.7106 43.2596 79.2315 42.6496 79.8969 42.222C80.5749 41.7944 81.3595 41.5806 82.2508 41.5806ZM82.232 42.9389C81.4411 42.9389 80.8134 43.1967 80.3489 43.7124C79.8969 44.2155 79.627 44.9198 79.5391 45.8254H84.68C84.6674 44.9701 84.4666 44.2784 84.0775 43.7502C83.6882 43.2094 83.0731 42.9389 82.232 42.9389Z" fill="#163A24"/>
<path d="M97.6965 41.5996C98.9269 41.5996 99.8365 41.8701 100.427 42.4108C101.017 42.9516 101.312 43.8133 101.312 44.9955V51.8816H100.107L99.7866 50.4478H99.7113C99.2716 51.0012 98.8074 51.4099 98.3178 51.674C97.8409 51.9382 97.1755 52.0702 96.3218 52.0702C95.4053 52.0702 94.6458 51.8313 94.0432 51.3533C93.4406 50.8628 93.1393 50.1018 93.1393 49.0705C93.1393 48.0643 93.5348 47.2908 94.3257 46.75C95.1166 46.1966 96.3344 45.8947 97.9789 45.8445L99.6924 45.7879V45.1841C99.6924 44.3415 99.5107 43.7567 99.1463 43.4296C98.782 43.1026 98.2679 42.9391 97.6024 42.9391C97.0751 42.9391 96.5729 43.0209 96.0958 43.1844C95.6188 43.3353 95.1731 43.5114 94.7589 43.7126L94.2503 42.4674C94.6897 42.2285 95.2108 42.0272 95.8134 41.8637C96.416 41.6876 97.0436 41.5996 97.6965 41.5996ZM98.1859 46.9953C96.9307 47.0456 96.0582 47.2469 95.5686 47.599C95.0915 47.9511 94.8529 48.448 94.8529 49.0894C94.8529 49.6554 95.0225 50.0704 95.3615 50.3346C95.7129 50.5987 96.1586 50.7307 96.6984 50.7307C97.5521 50.7307 98.2613 50.498 98.8262 50.0327C99.3911 49.5547 99.6736 48.8253 99.6736 47.8443V46.9387L98.1859 46.9953Z" fill="#163A24"/>
<path d="M108.007 52.0703C106.752 52.0703 105.748 51.6363 104.994 50.7685C104.241 49.8881 103.865 48.5801 103.865 46.8444C103.865 45.1087 104.241 43.8006 104.994 42.9203C105.76 42.0272 106.771 41.5808 108.026 41.5808C108.805 41.5808 109.439 41.7254 109.928 42.0147C110.43 42.304 110.839 42.6561 111.152 43.0712H111.265C111.253 42.9077 111.227 42.6687 111.19 42.3543C111.164 42.0272 111.152 41.7694 111.152 41.5808V37.5435H112.809V51.8816H111.472L111.227 50.5233H111.152C110.851 50.9509 110.449 51.3156 109.947 51.6175C109.445 51.9193 108.798 52.0703 108.007 52.0703ZM108.271 50.693C109.338 50.693 110.085 50.4037 110.512 49.8252C110.952 49.234 111.171 48.3473 111.171 47.1651V46.8633C111.171 45.6056 110.964 44.6434 110.55 43.9768C110.135 43.2976 109.37 42.958 108.252 42.958C107.361 42.958 106.689 43.3164 106.237 44.0334C105.798 44.7377 105.578 45.6872 105.578 46.8821C105.578 48.0895 105.798 49.0265 106.237 49.6931C106.689 50.3598 107.367 50.693 108.271 50.693Z" fill="#163A24"/>
<path d="M118.237 51.8812L114.415 41.769H116.185L118.332 47.7307C118.431 48.0074 118.539 48.3155 118.652 48.6551C118.765 48.9947 118.864 49.3218 118.953 49.6362C119.041 49.938 119.104 50.1958 119.141 50.4097H119.217C119.267 50.1958 119.335 49.9317 119.424 49.6173C119.524 49.3029 119.631 48.9758 119.744 48.6363C119.869 48.2967 119.976 47.9948 120.064 47.7307L122.211 41.769H123.981L120.139 51.8812H118.237Z" fill="#163A24"/>
<path d="M129.401 41.5996C130.631 41.5996 131.541 41.8701 132.131 42.4108C132.721 42.9516 133.016 43.8133 133.016 44.9955V51.8816H131.811L131.491 50.4478H131.415C130.976 51.0012 130.512 51.4099 130.022 51.674C129.545 51.9382 128.88 52.0702 128.026 52.0702C127.11 52.0702 126.35 51.8313 125.747 51.3533C125.145 50.8628 124.843 50.1018 124.843 49.0705C124.843 48.0643 125.239 47.2908 126.03 46.75C126.821 46.1966 128.038 45.8947 129.683 45.8445L131.397 45.7879V45.1841C131.397 44.3415 131.215 43.7567 130.851 43.4296C130.486 43.1026 129.972 42.9391 129.306 42.9391C128.779 42.9391 128.277 43.0209 127.8 43.1844C127.323 43.3353 126.877 43.5114 126.463 43.7126L125.954 42.4674C126.394 42.2285 126.915 42.0272 127.517 41.8637C128.12 41.6876 128.748 41.5996 129.401 41.5996ZM129.89 46.9953C128.635 47.0456 127.762 47.2469 127.273 47.599C126.795 47.9511 126.557 48.448 126.557 49.0894C126.557 49.6554 126.727 50.0704 127.065 50.3346C127.417 50.5987 127.863 50.7307 128.402 50.7307C129.256 50.7307 129.965 50.498 130.53 50.0327C131.095 49.5547 131.378 48.8253 131.378 47.8443V46.9387L129.89 46.9953Z" fill="#163A24"/>
<path d="M140.992 41.5806C142.197 41.5806 143.108 41.8761 143.723 42.4673C144.337 43.0458 144.645 43.9891 144.645 45.2972V51.8814H143.007V45.4104C143.007 43.7879 142.254 42.9766 140.747 42.9766C139.63 42.9766 138.857 43.2911 138.431 43.9199C138.004 44.5488 137.791 45.4544 137.791 46.6366V51.8814H136.134V41.7692H137.471L137.715 43.1464H137.81C138.136 42.6182 138.588 42.2283 139.165 41.9768C139.743 41.7126 140.352 41.5806 140.992 41.5806Z" fill="#163A24"/>
<path d="M151.145 50.7117C151.396 50.7117 151.653 50.6929 151.917 50.6551C152.181 50.6048 152.394 50.5545 152.557 50.5042V51.7682C152.382 51.8562 152.131 51.9255 151.804 51.9757C151.478 52.0387 151.164 52.0701 150.862 52.0701C150.335 52.0701 149.846 51.9821 149.394 51.806C148.955 51.6173 148.597 51.2966 148.32 50.8438C148.044 50.391 147.906 49.7559 147.906 48.9383V43.0521H146.475V42.2598L147.925 41.5995L148.584 39.4487H149.563V41.7692H152.482V43.0521H149.563V48.9006C149.563 49.5168 149.708 49.976 149.996 50.2778C150.297 50.5671 150.681 50.7117 151.145 50.7117Z" fill="#163A24"/>
<path d="M158.401 41.5996C159.631 41.5996 160.542 41.8701 161.132 42.4108C161.721 42.9516 162.017 43.8133 162.017 44.9955V51.8816H160.812L160.492 50.4478H160.416C159.977 51.0012 159.513 51.4099 159.023 51.674C158.546 51.9382 157.88 52.0702 157.027 52.0702C156.11 52.0702 155.351 51.8313 154.748 51.3533C154.146 50.8628 153.844 50.1018 153.844 49.0705C153.844 48.0643 154.24 47.2908 155.031 46.75C155.822 46.1966 157.039 45.8947 158.684 45.8445L160.398 45.7879V45.1841C160.398 44.3415 160.215 43.7567 159.851 43.4296C159.487 43.1026 158.972 42.9391 158.307 42.9391C157.78 42.9391 157.277 43.0209 156.801 43.1844C156.323 43.3353 155.878 43.5114 155.464 43.7126L154.955 42.4674C155.394 42.2285 155.916 42.0272 156.518 41.8637C157.121 41.6876 157.748 41.5996 158.401 41.5996ZM158.891 46.9953C157.635 47.0456 156.763 47.2469 156.274 47.599C155.796 47.9511 155.558 48.448 155.558 49.0894C155.558 49.6554 155.727 50.0704 156.066 50.3346C156.418 50.5987 156.863 50.7307 157.403 50.7307C158.256 50.7307 158.966 50.498 159.531 50.0327C160.096 49.5547 160.379 48.8253 160.379 47.8443V46.9387L158.891 46.9953Z" fill="#163A24"/>
<path d="M168.712 41.5806C169.377 41.5806 169.974 41.7063 170.501 41.9579C171.041 42.2095 171.499 42.593 171.876 43.1087H171.97L172.196 41.7692H173.514V52.0512C173.514 53.4975 173.143 54.5855 172.403 55.315C171.675 56.0445 170.539 56.4092 168.995 56.4092C167.513 56.4092 166.302 56.1954 165.36 55.7678V54.2396C166.352 54.7679 167.595 55.032 169.089 55.032C169.955 55.032 170.633 54.7742 171.123 54.2585C171.625 53.7554 171.876 53.0636 171.876 52.1832V51.7871C171.876 51.6361 171.882 51.4223 171.895 51.1456C171.907 50.8563 171.919 50.6551 171.933 50.5419H171.857C171.179 51.5607 170.137 52.0701 168.731 52.0701C167.425 52.0701 166.402 51.6109 165.662 50.6928C164.933 49.7747 164.57 48.4918 164.57 46.8442C164.57 45.2342 164.933 43.9577 165.662 43.0144C166.402 42.0585 167.419 41.5806 168.712 41.5806ZM168.938 42.9766C168.097 42.9766 167.444 43.3162 166.98 43.9954C166.515 44.662 166.283 45.6179 166.283 46.863C166.283 48.1082 166.509 49.064 166.961 49.7307C167.425 50.3847 168.097 50.7117 168.976 50.7117C169.993 50.7117 170.733 50.4413 171.198 49.9005C171.662 49.347 171.895 48.4603 171.895 47.2404V46.8442C171.895 45.4606 171.656 44.4734 171.179 43.8822C170.702 43.2785 169.955 42.9766 168.938 42.9766Z" fill="#163A24"/>
<path d="M180.618 41.5806C181.484 41.5806 182.225 41.7692 182.84 42.1465C183.468 42.5239 183.945 43.0584 184.271 43.7502C184.61 44.4293 184.779 45.228 184.779 46.1461V47.146H177.868C177.894 48.2905 178.183 49.1647 178.734 49.7684C179.299 50.3596 180.085 50.6551 181.088 50.6551C181.729 50.6551 182.294 50.5985 182.783 50.4853C183.286 50.3596 183.8 50.1835 184.327 49.9571V51.4097C183.813 51.6361 183.305 51.7996 182.802 51.9003C182.3 52.0135 181.704 52.0701 181.013 52.0701C180.059 52.0701 179.212 51.8751 178.471 51.4852C177.743 51.0953 177.171 50.5167 176.757 49.7495C176.356 48.9697 176.155 48.0202 176.155 46.9008C176.155 45.794 176.337 44.8444 176.701 44.052C177.077 43.2596 177.599 42.6496 178.264 42.222C178.942 41.7944 179.727 41.5806 180.618 41.5806ZM180.599 42.9389C179.808 42.9389 179.181 43.1967 178.716 43.7124C178.264 44.2155 177.994 44.9198 177.906 45.8254H183.047C183.035 44.9701 182.834 44.2784 182.444 43.7502C182.055 43.2094 181.44 42.9389 180.599 42.9389Z" fill="#163A24"/>
<path d="M201.016 46.8064C201.016 48.4792 200.589 49.7747 199.736 50.6928C198.894 51.6109 197.752 52.0701 196.309 52.0701C195.417 52.0701 194.619 51.8688 193.917 51.4663C193.226 51.0513 192.68 50.4539 192.279 49.6741C191.877 48.8817 191.676 47.9259 191.676 46.8064C191.676 45.1337 192.096 43.8445 192.938 42.9389C193.779 42.0333 194.921 41.5806 196.365 41.5806C197.281 41.5806 198.084 41.7881 198.776 42.2031C199.478 42.6056 200.024 43.1967 200.414 43.9765C200.815 44.7437 201.016 45.687 201.016 46.8064ZM193.39 46.8064C193.39 48.0013 193.621 48.9508 194.087 49.6552C194.563 50.3469 195.316 50.6928 196.346 50.6928C197.363 50.6928 198.11 50.3469 198.587 49.6552C199.064 48.9508 199.303 48.0013 199.303 46.8064C199.303 45.6116 199.064 44.6746 198.587 43.9954C198.11 43.3162 197.357 42.9766 196.327 42.9766C195.297 42.9766 194.551 43.3162 194.087 43.9954C193.621 44.6746 193.39 45.6116 193.39 46.8064Z" fill="#163A24"/>
<path d="M208.294 43.0519H205.751V51.8812H204.094V43.0519H202.324V42.2784L204.094 41.7124V41.1276C204.094 39.8195 204.383 38.8825 204.961 38.3166C205.539 37.738 206.342 37.4487 207.371 37.4487C207.773 37.4487 208.137 37.4865 208.463 37.5619C208.802 37.6248 209.091 37.7003 209.329 37.7883L208.896 39.0901C208.696 39.0272 208.463 38.9643 208.2 38.9014C207.936 38.8385 207.667 38.8071 207.39 38.8071C206.838 38.8071 206.424 38.9957 206.147 39.3731C205.883 39.7378 205.751 40.3164 205.751 41.1087V41.769H208.294V43.0519Z" fill="#163A24"/>
<path d="M223.782 46.8064C223.782 48.4792 223.356 49.7747 222.502 50.6928C221.661 51.6109 220.519 52.0701 219.075 52.0701C218.184 52.0701 217.386 51.8688 216.683 51.4663C215.993 51.0513 215.447 50.4539 215.046 49.6741C214.644 48.8817 214.443 47.9259 214.443 46.8064C214.443 45.1337 214.863 43.8445 215.704 42.9389C216.545 42.0333 217.688 41.5806 219.131 41.5806C220.048 41.5806 220.851 41.7881 221.541 42.2031C222.245 42.6056 222.791 43.1967 223.181 43.9765C223.582 44.7437 223.782 45.687 223.782 46.8064ZM216.156 46.8064C216.156 48.0013 216.388 48.9508 216.852 49.6552C217.33 50.3469 218.083 50.6928 219.112 50.6928C220.129 50.6928 220.877 50.3469 221.353 49.6552C221.83 48.9508 222.069 48.0013 222.069 46.8064C222.069 45.6116 221.83 44.6746 221.353 43.9954C220.877 43.3162 220.123 42.9766 219.093 42.9766C218.064 42.9766 217.318 43.3162 216.852 43.9954C216.388 44.6746 216.156 45.6116 216.156 46.8064Z" fill="#163A24"/>
<path d="M234.846 41.769V51.8812H233.49L233.245 50.5417H233.17C232.843 51.07 232.391 51.4598 231.814 51.7114C231.237 51.9504 230.621 52.0699 229.968 52.0699C228.751 52.0699 227.834 51.7806 227.219 51.202C226.604 50.6109 226.296 49.6739 226.296 48.391V41.769H227.972V48.2778C227.972 49.8877 228.719 50.6927 230.213 50.6927C231.331 50.6927 232.103 50.3783 232.529 49.7494C232.969 49.1205 233.188 48.2149 233.188 47.0327V41.769H234.846Z" fill="#163A24"/>
<path d="M242.758 41.5806C242.946 41.5806 243.146 41.5931 243.36 41.6183C243.586 41.6308 243.781 41.656 243.944 41.6938L243.737 43.2219C243.574 43.1842 243.391 43.1528 243.191 43.1276C243.002 43.1024 242.821 43.0898 242.645 43.0898C242.13 43.0898 241.647 43.2345 241.195 43.5238C240.743 43.8004 240.378 44.1966 240.102 44.7123C239.839 45.2154 239.707 45.8065 239.707 46.4857V51.8814H238.05V41.7692H239.406L239.594 43.6181H239.669C239.996 43.0647 240.416 42.5868 240.931 42.1843C241.446 41.7818 242.054 41.5806 242.758 41.5806Z" fill="#163A24"/>
<path d="M44.7291 69.8794C45.8715 69.8794 46.7252 70.1749 47.2901 70.7661C47.8551 71.3446 48.1375 72.2879 48.1375 73.596V80.1802H46.4992V73.6715C46.4992 72.0742 45.815 71.2755 44.4466 71.2755C43.4674 71.2755 42.7643 71.5585 42.3375 72.1244C41.9233 72.6904 41.7161 73.5143 41.7161 74.5959V80.1802H40.0778V73.6715C40.0778 72.0742 39.3873 71.2755 38.0064 71.2755C36.9895 71.2755 36.2864 71.5899 35.8973 72.2188C35.508 72.8477 35.3135 73.7532 35.3135 74.9355V80.1802H33.6564V70.0681H34.9934L35.2382 71.4453H35.3323C35.6462 70.917 36.0668 70.5272 36.594 70.2756C37.1338 70.0115 37.7051 69.8794 38.3077 69.8794C39.8895 69.8794 40.9189 70.4454 41.396 71.5773H41.4901C41.8291 70.9988 42.2873 70.5711 42.8648 70.2944C43.4548 70.0178 44.0762 69.8794 44.7291 69.8794Z" fill="#163A24"/>
<path d="M60.0307 75.1053C60.0307 76.778 59.6038 78.0736 58.7502 78.9917C57.909 79.9098 56.7666 80.3689 55.323 80.3689C54.4316 80.3689 53.6344 80.1677 52.9314 79.7652C52.2409 79.3501 51.6948 78.7527 51.2931 77.9729C50.8913 77.1805 50.6905 76.2247 50.6905 75.1053C50.6905 73.4325 51.111 72.1433 51.9522 71.2377C52.7933 70.3322 53.9357 69.8794 55.3794 69.8794C56.2959 69.8794 57.0993 70.0869 57.7898 70.502C58.4928 70.9045 59.0389 71.4956 59.4281 72.2754C59.8298 73.0426 60.0307 73.9859 60.0307 75.1053ZM52.4041 75.1053C52.4041 76.3002 52.6363 77.2497 53.1009 77.954C53.5779 78.6458 54.3311 78.9917 55.3606 78.9917C56.3775 78.9917 57.1244 78.6458 57.6015 77.954C58.0785 77.2497 58.3171 76.3002 58.3171 75.1053C58.3171 73.9104 58.0785 72.9734 57.6015 72.2942C57.1244 71.6151 56.3712 71.2755 55.3418 71.2755C54.3123 71.2755 53.5653 71.6151 53.1009 72.2942C52.6363 72.9734 52.4041 73.9104 52.4041 75.1053Z" fill="#163A24"/>
<path d="M67.5155 69.8794C68.7207 69.8794 69.6309 70.1749 70.2461 70.7661C70.8612 71.3446 71.1688 72.2879 71.1688 73.596V80.1802H69.5305V73.7092C69.5305 72.0867 68.7771 71.2755 67.2706 71.2755C66.1534 71.2755 65.3813 71.5899 64.9545 72.2188C64.5276 72.8477 64.3142 73.7532 64.3142 74.9355V80.1802H62.6571V70.0681H63.994L64.2389 71.4453H64.3331C64.6594 70.917 65.1114 70.5272 65.6889 70.2756C66.2664 70.0115 66.8753 69.8794 67.5155 69.8794Z" fill="#163A24"/>
<path d="M77.6685 79.0106C77.9197 79.0106 78.177 78.9917 78.4406 78.9539C78.7043 78.9037 78.9177 78.8533 79.0809 78.803V80.067C78.9052 80.1551 78.6541 80.2243 78.3276 80.2746C78.0013 80.3375 77.6874 80.3689 77.3861 80.3689C76.8588 80.3689 76.3692 80.2809 75.9172 80.1048C75.4779 79.9161 75.1201 79.5954 74.8439 79.1426C74.5677 78.6898 74.4296 78.0547 74.4296 77.2371V71.351H72.9984V70.5586L74.4484 69.8983L75.1075 67.7476H76.0867V70.0681H79.0056V71.351H76.0867V77.1994C76.0867 77.8157 76.2312 78.2748 76.5198 78.5766C76.8211 78.8659 77.2041 79.0106 77.6685 79.0106Z" fill="#163A24"/>
<path d="M82.7592 70.0494C82.7592 70.5525 82.7278 71.0241 82.665 71.4643H82.778C83.1045 70.9486 83.5438 70.5588 84.0962 70.2947C84.6611 70.0305 85.27 69.8985 85.9228 69.8985C87.1532 69.8985 88.0759 70.194 88.691 70.7852C89.3061 71.3637 89.6137 72.3008 89.6137 73.5962V80.1804H87.9754V73.7094C87.9754 72.0869 87.2222 71.2757 85.7157 71.2757C84.5858 71.2757 83.8074 71.5964 83.3806 72.2379C82.9663 72.8667 82.7592 73.7723 82.7592 74.9546V80.1804H81.1021V65.8423H82.7592V70.0494Z" fill="#163A24"/>
<path d="M94.3999 80.1804H92.7428V65.8423H94.3999V80.1804Z" fill="#163A24"/>
<path d="M96.0159 70.0684H97.786L99.9702 75.8225C100.159 76.3255 100.328 76.8098 100.479 77.2752C100.629 77.7279 100.742 78.1619 100.818 78.5769H100.893C100.968 78.2625 101.088 77.8537 101.251 77.3506C101.415 76.8349 101.584 76.3193 101.759 75.8036L103.812 70.0684H105.601L101.251 81.5766C100.9 82.5325 100.441 83.2934 99.8761 83.8594C99.3243 84.4254 98.5579 84.7084 97.5789 84.7084C97.2776 84.7084 97.0139 84.6895 96.7879 84.6518C96.562 84.6266 96.3674 84.5952 96.2042 84.5574V83.2368C96.3423 83.262 96.5055 83.2871 96.6938 83.3123C96.8947 83.3375 97.1019 83.35 97.3152 83.35C97.8928 83.35 98.3573 83.1865 98.7085 82.8595C99.0729 82.5324 99.3554 82.0985 99.5559 81.5577L100.083 80.2183L96.0159 70.0684Z" fill="#163A24"/>
<path d="M116.891 69.8794C118.134 69.8794 119.132 70.3133 119.885 71.1811C120.651 72.049 121.034 73.3571 121.034 75.1053C121.034 76.8284 120.651 78.1364 119.885 79.0294C119.132 79.9224 118.127 80.3689 116.872 80.3689C116.093 80.3689 115.448 80.2243 114.933 79.935C114.431 79.6331 114.035 79.2872 113.746 78.8973H113.633C113.659 79.1112 113.683 79.3815 113.708 79.7086C113.734 80.0356 113.746 80.3186 113.746 80.5575V84.7081H112.089V70.0681H113.445L113.671 71.4453H113.746C114.047 71.005 114.443 70.634 114.933 70.3322C115.422 70.0303 116.075 69.8794 116.891 69.8794ZM116.59 71.2755C115.561 71.2755 114.832 71.5648 114.405 72.1433C113.991 72.7218 113.772 73.6023 113.746 74.7845V75.1053C113.746 76.3504 113.947 77.3126 114.349 77.9918C114.763 78.6584 115.523 78.9917 116.627 78.9917C117.242 78.9917 117.745 78.8219 118.134 78.4823C118.536 78.1427 118.831 77.6836 119.019 77.1051C119.219 76.5139 119.32 75.841 119.32 75.0864C119.32 73.9293 119.094 73.0048 118.642 72.3131C118.203 71.6214 117.519 71.2755 116.59 71.2755Z" fill="#163A24"/>
<path d="M125.332 80.1804H123.675V65.8423H125.332V80.1804Z" fill="#163A24"/>
<path d="M132.352 69.8984C133.582 69.8984 134.492 70.1689 135.083 70.7097C135.672 71.2505 135.968 72.1121 135.968 73.2943V80.1804H134.763L134.443 78.7466H134.367C133.928 79.3 133.463 79.7087 132.974 79.9729C132.496 80.237 131.831 80.3691 130.978 80.3691C130.061 80.3691 129.302 80.1301 128.699 79.6522C128.096 79.1616 127.795 78.4007 127.795 77.3694C127.795 76.3631 128.191 75.5896 128.982 75.0489C129.772 74.4954 130.99 74.1936 132.635 74.1433L134.348 74.0867V73.483C134.348 72.6403 134.166 72.0555 133.802 71.7284C133.438 71.4014 132.923 71.2379 132.258 71.2379C131.731 71.2379 131.228 71.3197 130.752 71.4832C130.274 71.6341 129.829 71.8102 129.415 72.0114L128.906 70.7663C129.345 70.5273 129.867 70.326 130.469 70.1626C131.072 69.9864 131.699 69.8984 132.352 69.8984ZM132.842 75.2941C131.586 75.3444 130.714 75.5457 130.224 75.8978C129.747 76.25 129.509 76.7468 129.509 77.3882C129.509 77.9542 129.678 78.3693 130.017 78.6334C130.368 78.8975 130.814 79.0296 131.354 79.0296C132.207 79.0296 132.917 78.7969 133.482 78.3315C134.047 77.8536 134.33 77.1241 134.33 76.1431V75.2375L132.842 75.2941Z" fill="#163A24"/>
<path d="M143.944 69.8794C145.149 69.8794 146.059 70.1749 146.674 70.7661C147.289 71.3446 147.597 72.2879 147.597 73.596V80.1802H145.959V73.7092C145.959 72.0867 145.206 71.2755 143.699 71.2755C142.581 71.2755 141.809 71.5899 141.383 72.2188C140.955 72.8477 140.743 73.7532 140.743 74.9355V80.1802H139.085V70.0681H140.422L140.667 71.4453H140.761C141.087 70.917 141.539 70.5272 142.117 70.2756C142.694 70.0115 143.304 69.8794 143.944 69.8794Z" fill="#163A24"/>
<path d="M157.298 77.3881C157.298 78.3691 156.934 79.1112 156.206 79.6142C155.478 80.1174 154.499 80.3689 153.268 80.3689C152.565 80.3689 151.956 80.3123 151.441 80.1991C150.94 80.0859 150.493 79.9286 150.104 79.7274V78.2182C150.506 78.4194 150.989 78.608 151.554 78.7841C152.132 78.9476 152.715 79.0294 153.306 79.0294C154.147 79.0294 154.756 78.8973 155.132 78.6332C155.509 78.3565 155.697 77.9918 155.697 77.539C155.697 77.2874 155.629 77.061 155.49 76.8598C155.352 76.6586 155.101 76.4573 154.737 76.2561C154.386 76.0549 153.877 75.8285 153.212 75.5769C152.559 75.3253 152 75.0739 151.536 74.8223C151.071 74.5707 150.714 74.2688 150.462 73.9167C150.211 73.5646 150.086 73.1118 150.086 72.5584C150.086 71.7031 150.431 71.0428 151.121 70.5774C151.825 70.1121 152.741 69.8794 153.871 69.8794C154.485 69.8794 155.057 69.9423 155.584 70.0681C156.124 70.1812 156.627 70.3447 157.091 70.5586L156.526 71.8792C156.099 71.7031 155.653 71.5521 155.189 71.4264C154.725 71.3007 154.247 71.2377 153.758 71.2377C153.08 71.2377 152.559 71.3509 152.195 71.5773C151.843 71.7912 151.667 72.0867 151.667 72.464C151.667 72.7407 151.749 72.9797 151.912 73.1809C152.075 73.3696 152.345 73.5583 152.722 73.7469C153.111 73.923 153.626 74.1368 154.266 74.3884C154.906 74.6273 155.452 74.8726 155.904 75.1241C156.356 75.3757 156.702 75.6838 156.94 76.0486C157.178 76.4007 157.298 76.8473 157.298 77.3881Z" fill="#163A24"/>
<path d="M171.201 77.3881C171.201 78.3691 170.837 79.1112 170.109 79.6142C169.38 80.1174 168.401 80.3689 167.171 80.3689C166.468 80.3689 165.859 80.3123 165.344 80.1991C164.842 80.0859 164.396 79.9286 164.007 79.7274V78.2182C164.409 78.4194 164.893 78.608 165.457 78.7841C166.035 78.9476 166.618 79.0294 167.209 79.0294C168.05 79.0294 168.659 78.8973 169.035 78.6332C169.412 78.3565 169.6 77.9918 169.6 77.539C169.6 77.2874 169.531 77.061 169.393 76.8598C169.255 76.6586 169.003 76.4573 168.64 76.2561C168.288 76.0549 167.779 75.8285 167.115 75.5769C166.461 75.3253 165.903 75.0739 165.439 74.8223C164.974 74.5707 164.616 74.2688 164.365 73.9167C164.114 73.5646 163.989 73.1118 163.989 72.5584C163.989 71.7031 164.333 71.0428 165.024 70.5774C165.727 70.1121 166.644 69.8794 167.774 69.8794C168.389 69.8794 168.96 69.9423 169.487 70.0681C170.027 70.1812 170.529 70.3447 170.994 70.5586L170.429 71.8792C170.001 71.7031 169.556 71.5521 169.092 71.4264C168.627 71.3007 168.15 71.2377 167.661 71.2377C166.983 71.2377 166.461 71.3509 166.098 71.5773C165.746 71.7912 165.57 72.0867 165.57 72.464C165.57 72.7407 165.651 72.9797 165.815 73.1809C165.978 73.3696 166.248 73.5583 166.625 73.7469C167.014 73.923 167.529 74.1368 168.169 74.3884C168.809 74.6273 169.356 74.8726 169.807 75.1241C170.259 75.3757 170.604 75.6838 170.843 76.0486C171.081 76.4007 171.201 76.8473 171.201 77.3881Z" fill="#163A24"/>
<path d="M177.01 79.0106C177.262 79.0106 177.519 78.9917 177.783 78.9539C178.046 78.9037 178.26 78.8533 178.423 78.803V80.067C178.247 80.1551 177.996 80.2243 177.67 80.2746C177.343 80.3375 177.029 80.3689 176.728 80.3689C176.201 80.3689 175.711 80.2809 175.259 80.1048C174.819 79.9161 174.462 79.5954 174.186 79.1426C173.91 78.6898 173.772 78.0547 173.772 77.2371V71.351H172.34V70.5586L173.79 69.8983L174.449 67.7476H175.429V70.0681H178.347V71.351H175.429V77.1994C175.429 77.8157 175.573 78.2748 175.862 78.5766C176.163 78.8659 176.546 79.0106 177.01 79.0106Z" fill="#163A24"/>
<path d="M184.267 69.8984C185.497 69.8984 186.407 70.1689 186.998 70.7097C187.587 71.2505 187.883 72.1121 187.883 73.2943V80.1804H186.677L186.357 78.7466H186.282C185.842 79.3 185.378 79.7087 184.888 79.9729C184.411 80.237 183.745 80.3691 182.892 80.3691C181.975 80.3691 181.216 80.1301 180.614 79.6522C180.011 79.1616 179.71 78.4007 179.71 77.3694C179.71 76.3631 180.105 75.5896 180.896 75.0489C181.687 74.4954 182.905 74.1936 184.549 74.1433L186.263 74.0867V73.483C186.263 72.6403 186.08 72.0555 185.717 71.7284C185.353 71.4014 184.838 71.2379 184.173 71.2379C183.646 71.2379 183.143 71.3197 182.666 71.4832C182.189 71.6341 181.744 71.8102 181.329 72.0114L180.821 70.7663C181.26 70.5273 181.781 70.326 182.384 70.1626C182.986 69.9864 183.614 69.8984 184.267 69.8984ZM184.757 75.2941C183.501 75.3444 182.629 75.5457 182.139 75.8978C181.662 76.25 181.423 76.7468 181.423 77.3882C181.423 77.9542 181.593 78.3693 181.932 78.6334C182.283 78.8975 182.728 79.0296 183.269 79.0296C184.122 79.0296 184.832 78.7969 185.397 78.3315C185.962 77.8536 186.244 77.1241 186.244 76.1431V75.2375L184.757 75.2941Z" fill="#163A24"/>
<path d="M195.707 69.8794C195.895 69.8794 196.097 69.8919 196.31 69.9171C196.536 69.9297 196.73 69.9549 196.893 69.9926L196.686 71.5207C196.523 71.483 196.342 71.4516 196.14 71.4264C195.952 71.4012 195.77 71.3887 195.594 71.3887C195.08 71.3887 194.596 71.5333 194.144 71.8226C193.692 72.0993 193.329 72.4954 193.052 73.0111C192.788 73.5142 192.656 74.1054 192.656 74.7845V80.1802H190.999V70.0681H192.355L192.543 71.9169H192.619C192.945 71.3635 193.366 70.8856 193.88 70.4831C194.395 70.0806 195.005 69.8794 195.707 69.8794Z" fill="#163A24"/>
<path d="M202.149 79.0106C202.401 79.0106 202.658 78.9917 202.921 78.9539C203.185 78.9037 203.399 78.8533 203.561 78.803V80.067C203.385 80.1551 203.135 80.2243 202.808 80.2746C202.481 80.3375 202.168 80.3689 201.867 80.3689C201.339 80.3689 200.85 80.2809 200.398 80.1048C199.958 79.9161 199.6 79.5954 199.324 79.1426C199.049 78.6898 198.91 78.0547 198.91 77.2371V71.351H197.479V70.5586L198.929 69.8983L199.588 67.7476H200.567V70.0681H203.486V71.351H200.567V77.1994C200.567 77.8157 200.711 78.2748 201 78.5766C201.302 78.8659 201.685 79.0106 202.149 79.0106Z" fill="#163A24"/>
<path d="M206.43 66.2764C206.681 66.2764 206.901 66.3644 207.089 66.5405C207.29 66.704 207.391 66.9681 207.391 67.3329C207.391 67.685 207.29 67.9491 207.089 68.1252C206.901 68.3013 206.681 68.3894 206.43 68.3894C206.154 68.3894 205.922 68.3013 205.734 68.1252C205.545 67.9491 205.451 67.685 205.451 67.3329C205.451 66.9681 205.545 66.704 205.734 66.5405C205.922 66.3644 206.154 66.2764 206.43 66.2764ZM207.24 70.0684V80.1806H205.583V70.0684H207.24Z" fill="#163A24"/>
<path d="M215.296 69.8794C216.501 69.8794 217.412 70.1749 218.027 70.7661C218.641 71.3446 218.949 72.2879 218.949 73.596V80.1802H217.311V73.7092C217.311 72.0867 216.558 71.2755 215.051 71.2755C213.934 71.2755 213.162 71.5899 212.735 72.2188C212.308 72.8477 212.095 73.7532 212.095 74.9355V80.1802H210.438V70.0681H211.775L212.019 71.4453H212.114C212.44 70.917 212.892 70.5272 213.469 70.2756C214.047 70.0115 214.656 69.8794 215.296 69.8794Z" fill="#163A24"/>
<path d="M225.656 69.8794C226.322 69.8794 226.918 70.0051 227.445 70.2567C227.985 70.5083 228.443 70.8918 228.82 71.4075H228.914L229.14 70.0681H230.458V80.35C230.458 81.7964 230.088 82.8844 229.347 83.6138C228.619 84.3433 227.483 84.7081 225.938 84.7081C224.457 84.7081 223.246 84.4942 222.304 84.0666V82.5385C223.296 83.0667 224.539 83.3308 226.033 83.3308C226.899 83.3308 227.577 83.073 228.066 82.5573C228.569 82.0543 228.82 81.3625 228.82 80.4821V80.0859C228.82 79.935 228.826 79.7211 228.838 79.4444C228.852 79.1551 228.864 78.9539 228.876 78.8407H228.801C228.123 79.8595 227.082 80.3689 225.675 80.3689C224.37 80.3689 223.346 79.9098 222.605 78.9917C221.878 78.0735 221.513 76.7907 221.513 75.143C221.513 73.5331 221.878 72.2565 222.605 71.3132C223.346 70.3574 224.363 69.8794 225.656 69.8794ZM225.882 71.2755C225.041 71.2755 224.389 71.6151 223.924 72.2942C223.459 72.9609 223.227 73.9167 223.227 75.1619C223.227 76.407 223.453 77.3629 223.905 78.0295C224.37 78.6835 225.041 79.0105 225.92 79.0105C226.937 79.0105 227.678 78.7402 228.142 78.1993C228.607 77.646 228.838 76.7592 228.838 75.5392V75.143C228.838 73.7595 228.6 72.7722 228.123 72.181C227.646 71.5773 226.899 71.2755 225.882 71.2755Z" fill="#163A24"/>
<path d="M242.378 69.8984C243.609 69.8984 244.519 70.1689 245.109 70.7097C245.699 71.2505 245.994 72.1121 245.994 73.2943V80.1804H244.789L244.468 78.7466H244.393C243.954 79.3 243.489 79.7087 243 79.9729C242.523 80.237 241.858 80.3691 241.004 80.3691C240.087 80.3691 239.328 80.1301 238.725 79.6522C238.122 79.1616 237.821 78.4007 237.821 77.3694C237.821 76.3631 238.216 75.5896 239.007 75.0489C239.798 74.4954 241.017 74.1936 242.661 74.1433L244.374 74.0867V73.483C244.374 72.6403 244.193 72.0555 243.828 71.7284C243.465 71.4014 242.95 71.2379 242.284 71.2379C241.757 71.2379 241.255 71.3197 240.778 71.4832C240.301 71.6341 239.855 71.8102 239.441 72.0114L238.932 70.7663C239.372 70.5273 239.892 70.326 240.495 70.1626C241.098 69.9864 241.726 69.8984 242.378 69.8984ZM242.868 75.2941C241.613 75.3444 240.74 75.5457 240.25 75.8978C239.774 76.25 239.535 76.7468 239.535 77.3882C239.535 77.9542 239.704 78.3693 240.043 78.6334C240.395 78.8975 240.841 79.0296 241.38 79.0296C242.234 79.0296 242.943 78.7969 243.508 78.3315C244.073 77.8536 244.355 77.1241 244.355 76.1431V75.2375L242.868 75.2941Z" fill="#163A24"/>
<path d="M252.482 79.0106C252.733 79.0106 252.99 78.9917 253.254 78.9539C253.518 78.9037 253.731 78.8533 253.894 78.803V80.067C253.719 80.1551 253.468 80.2243 253.141 80.2746C252.815 80.3375 252.501 80.3689 252.2 80.3689C251.672 80.3689 251.183 80.2809 250.731 80.1048C250.292 79.9161 249.934 79.5954 249.657 79.1426C249.381 78.6898 249.243 78.0547 249.243 77.2371V71.351H247.812V70.5586L249.262 69.8983L249.921 67.7476H250.9V70.0681H253.819V71.351H250.9V77.1994C250.9 77.8157 251.045 78.2748 251.333 78.5766C251.635 78.8659 252.018 79.0106 252.482 79.0106Z" fill="#163A24"/>
<path d="M255.671 71.0871C255.671 70.6091 255.784 70.2759 256.01 70.0872C256.236 69.8985 256.505 69.8042 256.82 69.8042C257.145 69.8042 257.422 69.8985 257.648 70.0872C257.887 70.2759 258.006 70.6091 258.006 71.0871C258.006 71.5399 257.887 71.8669 257.648 72.0681C257.422 72.2693 257.145 72.37 256.82 72.37C256.505 72.37 256.236 72.2693 256.01 72.0681C255.784 71.8669 255.671 71.5399 255.671 71.0871ZM255.671 79.1617C255.671 78.6964 255.784 78.3694 256.01 78.1807C256.236 77.992 256.505 77.8977 256.82 77.8977C257.145 77.8977 257.422 77.992 257.648 78.1807C257.887 78.3694 258.006 78.6964 258.006 79.1617C258.006 79.6145 257.887 79.9415 257.648 80.1428C257.422 80.344 257.145 80.4446 256.82 80.4446C256.505 80.4446 256.236 80.344 256.01 80.1428C255.784 79.9415 255.671 79.6145 255.671 79.1617Z" fill="#163A24"/>
<path d="M169.714 7.95376C86.8571 7.18884 1.08124 23.3955 6.35397 107.538C9.33565 132.849 43.9224 183.002 158.416 181.115C214.438 181.115 290.045 146.779 287.409 79.2389C284.428 51.8832 291.834 -4.14564 134.406 1.88853C128.756 2.10509 84.0324 5.66147 69.9091 11.3214C34.1298 21.2261 -21.8929 63.6745 26.1269 121.687C40.1815 138.667 73.1107 170.645 178.188 166.494C218.519 164.922 343.903 109.896 267.636 38.677C239.86 12.7392 169.714 -9.43301 38.3669 26.5345" stroke="#FBC8B8" stroke-width="3"/>
</g>
<defs>
<filter id="filter0_d_1_1281" x="0" y="0" width="298" height="191" filterUnits="userSpaceOnUse" color-interpolation-filters="sRGB">
<feFlood flood-opacity="0" result="BackgroundImageFix"/>
<feColorMatrix in="SourceAlpha" type="matrix" values="0 0 0 0 0 0 0 0 0 0 0 0 0 0 0 0 0 0 127 0" result="hardAlpha"/>
<feOffset dy="4"/>
<feGaussianBlur stdDeviation="2"/>
<feComposite in2="hardAlpha" operator="out"/>
<feColorMatrix type="matrix" values="0 0 0 0 0 0 0 0 0 0 0 0 0 0 0 0 0 0 0.25 0"/>
<feBlend mode="normal" in2="BackgroundImageFix" result="effect1_dropShadow_1_1281"/>
<feBlend mode="normal" in="SourceGraphic" in2="effect1_dropShadow_1_1281" result="shape"/>
</filter>
<clipPath id="clip0_1_1281">
<rect width="290" height="183" fill="white" transform="translate(4)"/>
</clipPath>
</defs>
</svg>
